<?xml version="1.0" encoding="utf-8"?>
<!-- Generator: Adobe Illustrator 24.3.0, SVG Export Plug-In . SVG Version: 6.00 Build 0)  -->
<svg version="1.1" id="katman_1" xmlns="http://www.w3.org/2000/svg" xmlns:xlink="http://www.w3.org/1999/xlink" x="0px" y="0px"
	 viewBox="0 0 940 788" style="enable-background:new 0 0 940 788;" xml:space="preserve">
<style type="text/css">
	.st0{fill:#FFFFFF;}
	.st1{fill:#97978D;}
	.st2{fill:#CCCCCC;}
	.st3{fill:none;}
	.st4{enable-background:new    ;}
	.st5{fill:#FFFFFF;stroke:#595959;stroke-width:7;}
</style>
<desc>Created with Fabric.js 3.5.0</desc>
<rect width="940" height="788"/>
<g id="_x35_63913" transform="matrix(0.658 0 0 0.658 470 394)">
	<g vector-effect="non-scaling-stroke">
		<g id="textblock" transform="matrix(2.5286 0 0 2.5286 0.4697 186.9834)">
			<path class="st0" d="M196.8-46.1c-1.9-16.8-7.2-21.4-7.2-21.4C173.3-84.8,153-81,134.8-78.6c-32.2,0.1-64.3,3.8-96.4,5.8
				C-29-72.5-97-77.5-164.1-65.2c-6.3,3.8-40.2,0.7-32.5,21.3c2,8.5,9.3,18,9.1,25.9c1,1.4,2.4-1.8,3,0.2c2.1,5.3,5.5,2.8,8.3,6
				c-3.9,8.4-1.1,15.4,1.6,22.8c-4.7,1.9-10.7,1-13.4,7.3c-0.3,4.6-1.8,3.7-3.4,3.5c-1.2-0.1-3.6,0.4-3.2,1.8
				c1.4,4.9-4.6,7.8-0.8,12.6c-2.6,5.2,1.8,9.8,1.2,15.4c-0.1,1.1,0.3,2.1,1,2.4c2.9,1.4-1.3,4.3-0.9,7.3
				c29.6,20.9,61.6,6.4,91.9,16c7.9-6.7,2,2.4,5.1,1c2.5-1.6,4.2,5.2,7,1.3c0.4-1.1-0.2-3.7,1.3-3.2c0.8,0.3,1.5,0.2,1.6-1.3
				c0.2-2.3-1.3-0.9-1.7-2.1c4.2-6.1,3.2,8.4,7.1,7.8c-0.2-1.8-1.3-4.3,1-4c2.3-2.5,2.4-4.7,4.5,1.1c0.1,1.2,0.4,2.1,1,2.7
				c6.5-6.2,13,2.2,19.8-0.6c4.2-3.1,8.2,1.7,12.4,0.5c1.5-0.9,3-2.6,4.4,0.2c17.5,0.6,36.2-1.9,52.8,0.1
				c44.4-3.8,91.9,1.5,138.7-3.4c11-1.9,22.5-4.6,33.3-6.8c0,0,8.7-6,8.7-32.8s1.9-23.5,2.1-44.8C197.3-28.5,198.6-29.3,196.8-46.1
				L196.8-46.1z"/>
		</g>
		<g id="text-0" transform="matrix(5.8835 0 0 5.8835 0.5002 186.9838)">
			<path class="st1" d="M-57.1,18.6L-57.1,18.6c1.5-1,3-2.4,4.5-4s2.8-3.4,4-5.2c1.2-1.9,2.2-3.8,3-5.9c0.8-2,1.4-4,1.7-5.9l0,0
				c0-0.4-0.2-0.7-0.7-0.8l0,0c-0.5,0-1.1,0.4-1.9,1.2c-0.8,0.8-1.7,1.9-2.7,3.1c-1,1.3-2,2.7-3,4.2c-1,1.6-1.9,3.1-2.8,4.7
				c-0.8,1.6-1.5,3-2.1,4.3c-0.6,1.4-0.9,2.4-1,3.3l0,0c-0.3,0-0.6-0.3-0.8-1l0,0c-0.1-0.2-0.2-0.3-0.4-0.5
				c-0.2-0.2-0.4-0.4-0.8-0.7l0,0c-0.2-0.1-0.3-0.3-0.5-0.5s-0.3-0.3-0.3-0.5l0,0c-0.1-0.3-0.2-0.7-0.2-1.3l0,0c0-2,0.2-4.2,0.8-6.7
				s1.2-5,2-7.5c0.8-2.6,1.8-5.1,2.9-7.6c1.1-2.5,2.2-4.8,3.4-6.8c1.2-2.1,2.4-3.8,3.6-5.2c1.2-1.4,2.3-2.4,3.4-2.9l0,0
				c0.3,0.1,0.7,0.3,1.2,0.5s0.9,0.5,1.4,0.8s0.9,0.6,1.3,0.9c0.4,0.3,0.7,0.6,0.9,0.8l0,0c-3.7,3-6.8,6.8-9.5,11.4
				c-2.7,4.7-4.9,10.1-6.6,16.5l0,0c0.9-1.7,2-3.4,3.1-5c1.2-1.6,2.3-3,3.5-4.3c1.1-1.2,2.2-2.2,3.3-3c1-0.7,1.9-1.1,2.6-1.1l0,0
				c0.5,0.1,1,0.4,1.5,0.7c0.5,0.3,1,0.7,1.4,1.2s0.7,1,1,1.6s0.4,1.1,0.5,1.7l0,0c0,1.4-0.3,2.9-0.7,4.5c-0.5,1.6-1.1,3.1-1.8,4.7
				c-0.8,1.5-1.6,3-2.6,4.4s-2,2.6-3,3.7c-1.1,1.1-2.1,1.9-3.1,2.5c-1.1,0.6-2,0.9-3,0.9l0,0c-0.4,0-0.8,0-1.2-0.1s-0.8-0.2-1.1-0.4
				c-0.4-0.2-0.6-0.3-0.9-0.5C-57,18.9-57.1,18.7-57.1,18.6z M-36.3,8.4L-36.3,8.4c0-2.3,0.3-4.6,0.8-6.9c0.6-2.2,1.3-4.4,2.3-6.4
				s2.2-3.9,3.6-5.5c1.4-1.7,2.9-3.1,4.6-4.4c1.7-1.2,3.4-2.2,5.3-2.9c1.9-0.7,3.8-1,5.8-1l0,0c2.3,0,4.1,0.5,5.4,1.5
				s1.9,2.3,1.9,4.1l0,0c0,0.7-0.1,1.3-0.3,2C-7.1-10.4-7.3-9.7-7.7-9C-8-8.3-8.5-7.7-8.9-7c-0.5,0.6-1,1.2-1.5,1.6l0,0
				c-0.9-0.1-1.6-0.5-2.2-1.2c-0.6-0.6-1-1.4-1.2-2.3l0,0c1.2-1,2.1-2,2.8-3c0.7-1,1-2,1-2.9l0,0c0-1.5-0.9-2.2-2.8-2.2l0,0
				c-0.8,0-1.6,0.2-2.4,0.5c-0.8,0.3-1.6,0.8-2.5,1.3c-0.8,0.6-1.6,1.3-2.4,2.1c-0.8,0.8-1.5,1.7-2.2,2.6l0,0
				C-27.1-3.8-29.4,3-29.4,10l0,0c0,2.5,0.4,4.4,1.1,5.9c0.8,1.5,1.8,2.4,3,2.7l0,0c1.4-0.3,3.3-1.2,5.5-2.8
				c2.2-1.5,4.6-3.4,7.2-5.8l0,0c0.3,0.3,0.5,0.7,0.6,1.1l0,0c-1,1.3-2,2.5-3,3.6s-2.1,2.2-3.1,3.2s-2,1.8-3,2.6
				c-1,0.7-1.9,1.3-2.7,1.7l0,0c-4.1-0.1-7.3-1.2-9.4-3.5C-35.3,16.3-36.3,12.9-36.3,8.4z M-8.7,15L-8.7,15c0-1.5,0.4-3.5,1.1-6.2
				c0.7-2.6,1.7-5.7,2.9-9.3l0,0c2.1-5.6,4-10.3,5.8-14.1c1.8-3.7,3.6-6.7,5.3-8.8l0,0c0.5,0.2,1,0.4,1.6,0.6
				c0.6,0.3,1.2,0.6,1.7,0.9c0.6,0.3,1.1,0.6,1.5,1c0.5,0.3,0.7,0.6,0.9,0.8l0,0c-2.6,3.1-4.9,6.4-6.8,9.9S1.5-2.6-0.2,1.9l0,0
				c-1.4,3.9-2.5,7.5-3.2,10.6c-0.7,3.2-1.1,5.8-1.1,7.9l0,0c0,0.6,0,0.9,0,1s0,0.3,0,0.4l0,0c-0.5-0.1-0.9-0.2-1.2-0.4
				C-6,21.2-6.2,21-6.4,20.8l0,0c-0.1-0.2-0.2-0.4-0.5-0.7c-0.3-0.3-0.6-0.6-0.8-0.7l0,0c-0.3-0.2-0.5-0.7-0.8-1.6
				C-8.6,17-8.7,16.1-8.7,15z M20.2-2L20.2-2c0.3,0,0.7,0.1,1.2,0.2c0.4,0.1,0.9,0.3,1.2,0.5c0.4,0.1,0.7,0.3,1,0.5
				C23.8-0.6,24-0.4,24-0.3l0,0c-0.7,1.4-1.3,2.8-1.9,4.2s-1,2.8-1.4,4.1s-0.7,2.5-0.9,3.6c-0.2,1.1-0.3,2.1-0.3,2.9l0,0
				c0,0.9,0.1,1.7,0.3,2.3c0.2,0.6,0.5,1.1,1,1.3l0,0c-0.4,0.3-0.9,0.5-1.6,0.6c-0.6,0.2-1.2,0.2-1.7,0.2l0,0
				c-1.8,0-2.7-1.2-2.7-3.7l0,0c0-1.9,0.6-4.5,1.9-7.8l0,0c-0.7,1.5-1.4,3-2.3,4.3c-0.9,1.4-1.7,2.5-2.6,3.6S9.9,17.5,9,18.1
				c-0.9,0.7-1.8,1-2.5,1.2l0,0c-1.2-0.1-2.2-0.7-3-1.8c-0.8-1.1-1.2-2.5-1.2-4.3l0,0c0-1.9,0.4-3.8,1.2-5.9s1.8-4,3.1-5.8
				c1.2-1.8,2.6-3.2,4.1-4.4s2.9-1.8,4.2-1.9l0,0c0.3,0.1,0.7,0.3,1.1,0.6c0.4,0.3,0.8,0.6,1.2,1c0.4,0.4,0.7,0.8,1,1.2
				s0.4,0.8,0.4,1.1l0,0c-1.3,0.2-2.7,0.9-4.1,2s-2.7,2.4-3.8,4c-1.2,1.6-2.1,3.2-2.8,5c-0.7,1.8-1.1,3.4-1.1,4.9l0,0
				c0,0.6,0.2,1,0.7,1.2l0,0c1-0.2,2.1-1,3.3-2.5c1.3-1.4,2.8-3.7,4.6-6.7l0,0c0.3-0.6,0.7-1.3,1.1-2s0.8-1.5,1.3-2.3
				c0.4-0.8,0.9-1.6,1.3-2.4C19.5-0.4,19.9-1.2,20.2-2z M43.7-1.7L43.7-1.7c0,0.6-0.1,1.3-0.3,2S43,1.6,42.7,2.2
				c-0.3,0.5-0.5,1-0.8,1.4s-0.6,0.6-0.8,0.5l0,0c-0.4,0-0.6-0.3-0.7-0.7l0,0c0-0.1,0-0.3,0.1-0.5s0.2-0.5,0.3-0.7
				C40.9,1.9,41,1.6,41,1.3c0.1-0.3,0.1-0.5,0.1-0.7l0,0c0-0.5-0.1-0.9-0.3-1.2S40.3-1,40-1l0,0c-1.3,0-2.4,0.8-3,2.5
				c-0.7,1.7-1.1,4.1-1.1,7.4l0,0c0,0.3,0,0.5,0.1,0.6l0,0c0.7,0,1.3-0.1,1.9-0.1c0.6,0,1.1,0,1.6,0l0,0c0,0.1,0,0.2,0,0.4l0,0
				c0,0.3-0.1,0.5-0.2,0.6l0,0c-0.8,0.2-1.4,0.3-1.8,0.4c-0.5,0.1-0.8,0.2-1,0.3S36,11.3,36,11.4c-0.1,0.1-0.1,0.3-0.1,0.5l0,0
				c0,0.3,0,0.5,0,0.8s0,0.6,0,1l0,0c0,2.8-0.8,5-2.3,6.8c-1.5,1.7-3.6,2.7-6.3,2.9l0,0c-0.5,0-0.9-0.2-1.4-0.4s-1-0.5-1.4-0.9
				c-0.5-0.4-0.8-0.8-1.2-1.2c-0.3-0.5-0.6-0.9-0.7-1.4l0,0c0-1.3,0.3-2.5,0.8-3.6s1.3-2.2,2.2-3.1c0.9-0.9,2-1.6,3.2-2.2
				c1.3-0.5,2.6-0.9,4.1-1l0,0c0-0.8-0.1-1.7-0.2-2.5s-0.3-1.6-0.5-2.3s-0.4-1.5-0.5-2.2c-0.2-0.7-0.3-1.4-0.2-2.1l0,0
				c0-0.9,0.2-1.8,0.6-2.7c0.4-0.9,0.8-1.7,1.4-2.4c0.6-0.7,1.3-1.4,2.1-1.9c0.7-0.5,1.5-0.8,2.4-1l0,0c0.4,0.1,0.9,0.4,1.5,0.9
				s1.2,1,1.8,1.6s1.1,1.2,1.6,1.8C43.3-2.6,43.6-2.1,43.7-1.7z M27.2,21.1L27.2,21.1c0.8-0.3,1.6-0.8,2.3-1.4
				c0.7-0.6,1.3-1.4,1.9-2.2c0.5-0.8,1-1.6,1.3-2.5s0.5-1.8,0.5-2.7l0,0c-0.7,0.1-1.4,0.4-2.2,0.9c-0.8,0.5-1.6,1.1-2.2,1.9
				c-0.7,0.7-1.3,1.5-1.8,2.2c-0.5,0.8-0.7,1.4-0.7,2l0,0C26.2,20.1,26.6,20.7,27.2,21.1z M61-1.7L61-1.7c0,0.6-0.1,1.3-0.3,2
				S60.3,1.6,60,2.2c-0.3,0.5-0.6,1-0.8,1.4c-0.3,0.4-0.6,0.6-0.9,0.5l0,0c-0.4,0-0.6-0.3-0.6-0.7l0,0c0-0.1,0-0.3,0.1-0.5
				s0.2-0.5,0.3-0.7c0.1-0.3,0.2-0.5,0.3-0.8s0.1-0.5,0.1-0.7l0,0c0-0.5-0.1-0.9-0.3-1.2C57.9-0.9,57.6-1,57.3-1l0,0
				C56-1,55-0.2,54.2,1.5c-0.7,1.7-1,4.1-1,7.4l0,0c0,0.3,0,0.5,0,0.6l0,0c0.7,0,1.3-0.1,1.9-0.1c0.6,0,1.1,0,1.6,0l0,0
				c0,0.1,0.1,0.2,0.1,0.4l0,0c0,0.3-0.1,0.5-0.2,0.6l0,0c-0.8,0.2-1.4,0.3-1.8,0.4c-0.4,0.1-0.8,0.2-1,0.3s-0.4,0.2-0.4,0.3
				s-0.1,0.3-0.1,0.5l0,0c0,0.3,0,0.5,0,0.8s0,0.6,0,1l0,0c0,2.8-0.8,5-2.3,6.8c-1.5,1.7-3.6,2.7-6.3,2.9l0,0c-0.5,0-1-0.2-1.5-0.4
				s-1-0.5-1.4-0.9s-0.8-0.8-1.2-1.2c-0.3-0.5-0.6-0.9-0.7-1.4l0,0c0-1.3,0.3-2.5,0.8-3.6s1.3-2.2,2.2-3.1c0.9-0.9,2-1.6,3.2-2.2
				c1.3-0.5,2.6-0.9,4.1-1l0,0c0-0.8-0.1-1.7-0.2-2.5c-0.2-0.8-0.3-1.6-0.5-2.3S49.1,3.3,49,2.6c-0.2-0.7-0.2-1.4-0.2-2.1l0,0
				c0-0.9,0.2-1.8,0.5-2.7c0.4-0.9,0.9-1.7,1.5-2.4s1.3-1.4,2.1-1.9s1.6-0.9,2.5-1.1l0,0c0.4,0.1,0.9,0.4,1.5,0.9s1.2,1,1.8,1.6
				s1.1,1.2,1.6,1.8C60.6-2.6,60.9-2.1,61-1.7z M44.5,21.1L44.5,21.1c0.8-0.3,1.6-0.8,2.3-1.4s1.3-1.4,1.9-2.2
				c0.5-0.8,1-1.6,1.3-2.5s0.5-1.8,0.5-2.7l0,0c-0.7,0.1-1.4,0.4-2.2,0.9s-1.5,1.1-2.2,1.9c-0.7,0.7-1.3,1.5-1.8,2.2
				c-0.5,0.8-0.7,1.4-0.7,2l0,0C43.5,20.1,43.9,20.7,44.5,21.1z"/>
		</g>
		<g id="icon-0" transform="matrix(6.8655 0 0 6.8655 249.3472 -236.8841)">
			<path class="st2" d="M8.1-1.8L-4.4-14.3c-1-1-2.6-1-3.5,0c-1,1-1,2.6,0,3.5L-6.2-9l9,9l-9,9L-8,10.8c-1,1-1,2.6,0,3.5
				c0.5,0.5,1.1,0.7,1.8,0.7s1.3-0.2,1.8-0.7L8.1,1.8C9,0.8,9-0.8,8.1-1.8z"/>
		</g>
		<g id="icon-0_1_" transform="matrix(6.8655 0 0 6.8655 -248.1476 -236.8841)">
			<path class="st2" d="M8-10.7c1-1,1-2.6,0-3.5c-1-1-2.6-1-3.5,0L-8-1.8c-1,1-1,2.6,0,3.5L4.5,14.2c0.5,0.5,1.1,0.7,1.8,0.7
				s1.3-0.2,1.8-0.7c1-1,1-2.6,0-3.5L6.3,9l-9-9l9-9L8-10.7z"/>
		</g>
		<g id="icon-0_2_" transform="matrix(6.8655 0 0 6.8655 0.3845 -236.3695)">
			<path class="st2" d="M22.5-20.8c0-0.1,0-0.2-0.1-0.2c0-0.1-0.1-0.2-0.1-0.2c0-0.1-0.1-0.1-0.1-0.2c-0.2-0.3-0.4-0.5-0.7-0.7
				c-0.1,0-0.1-0.1-0.2-0.1s-0.2-0.1-0.2-0.1c-0.1,0-0.2-0.1-0.3-0.1c-0.1,0-0.1,0-0.2-0.1c-0.2,0-0.3,0-0.5,0h-30
				c-0.7,0-1.3,0.3-1.8,0.7l-10,10c-0.1,0.1-0.2,0.2-0.3,0.4c0,0.1-0.1,0.1-0.1,0.2c0,0.1-0.1,0.2-0.1,0.2c0,0.1-0.1,0.2-0.1,0.2
				c0,0.1,0,0.1-0.1,0.2c0,0.2,0,0.3,0,0.5v30c0,1.4,1.1,2.5,2.5,2.5h30c0.2,0,0.3,0,0.5,0c0.1,0,0.1,0,0.2-0.1c0.1,0,0.2,0,0.2-0.1
				c0.1,0,0.2-0.1,0.2-0.1c0.1,0,0.1-0.1,0.2-0.1c0.1-0.1,0.3-0.2,0.4-0.3l10-10c0.5-0.5,0.7-1.1,0.7-1.8v-30c0-0.2,0-0.3,0-0.5
				C22.5-20.6,22.5-20.6,22.5-20.8z M7.5,17.5h-25v-25h25V17.5z M9-12.5h-23l5-5h23L9-12.5z M17.5,9l-5,5V-9l5-5V9z"/>
		</g>
		<g id="tight-bounds" transform="matrix(3.1619 0 0 3.1619 0.4646 0.3108)">
			<rect x="-158.1" y="-123.6" class="st3" width="316.3" height="247.2"/>
		</g>
	</g>
</g>
<g class="st4">
	<path class="st5" d="M341.1,638.3l-7.5-0.6c-2.3,10.4-3.6,16.4-3.8,18.1c-0.2,1.7-0.3,3.1-0.3,4.1c0,1.1,0.3,1.6,1,1.6
		c0.8,0,2.3-0.5,4.6-1.6l2.1,4.2c-1.9,1.7-4.2,3.1-7,4.3c-2.8,1.2-5.6,1.7-8.2,1.7c-2.6,0-4.7-0.7-6.3-2c-1.6-1.4-2.3-3.3-2.3-5.8
		c0-2.5,0.7-6.5,2.2-12c1.4-5.5,2.4-9.6,2.9-12.3c-1.4,0.1-3.5,0.3-6.2,0.6c-0.2-1.2-0.3-2.4-0.3-3.4c0-1.1,0.1-2.3,0.4-3.6h7
		c0.1-0.8,0.1-3.3,0.1-7.6l-0.2-3.6c5.6-1.9,11-2.8,16.1-2.8c0.4,0.9,0.6,2.5,0.6,4.8c0,2.3-0.4,5.3-1.1,9.1h7.8
		C342.6,634,342.1,636.2,341.1,638.3z"/>
	<path class="st5" d="M369.8,609.8c0,4.1-1.5,12.4-4.4,25.1c5-2.8,8.9-4.3,11.8-4.3s5,0.8,6.4,2.3c1.4,1.5,2.1,3.5,2.1,5.7
		c0,2.3-0.6,5.9-1.9,10.8c-1.3,4.9-1.9,8.1-1.9,9.6c0,1.5,0.2,2.3,0.7,2.3l4.5-1.2l1.6,4.3c-1.8,1.3-4.3,2.6-7.4,3.8
		c-3.2,1.2-6,1.8-8.4,1.8c-4.7,0-7-2.7-7-8c0-2.4,0.6-6,1.8-10.8c1.2-4.8,1.8-7.8,1.8-9c0-1.2-0.4-1.9-1.3-1.9
		c-1.2,0-2.7,0.6-4.4,1.7c-2.6,11.1-3.9,18.8-3.9,23.1l0.1,2.1c-5.9,1.6-11.2,2.3-15.9,2.3c-0.3-0.2-0.5-1.1-0.5-2.8
		c0-3.6,1.7-12.5,5.2-26.7c3.5-14.2,5.2-23.8,5.2-28.7c0-1.5-0.1-2.8-0.3-4c5.6-1.6,10.9-2.3,15.8-2.3
		C369.6,606.2,369.8,607.7,369.8,609.8z"/>
	<path class="st5" d="M393.3,653.3c0-7.2,2.2-12.8,6.6-16.8c4.4-4,9.8-6,16.2-6c4.5,0,8,1,10.7,2.9c2.7,1.9,4,4.5,4,7.8
		c0,2.4-0.7,4.5-2.2,6.4c-1.5,1.9-3.2,3.3-5.3,4.3c-4.4,2-8.2,3.2-11.5,3.6l-2.2,0.3c0.6,3.8,2.6,5.7,5.7,5.7c1.4,0,2.9-0.3,4.6-0.9
		c1.7-0.6,3-1.2,4-1.9l1.5-0.9l2.8,3.7l-1,1c-0.3,0.3-1.2,1-2.5,2c-1.3,1-2.7,1.9-4.1,2.7c-1.4,0.8-3.2,1.4-5.4,2
		c-2.2,0.6-4.4,0.9-6.6,0.9c-4.9,0-8.7-1.4-11.4-4.3C394.7,662.9,393.3,658.8,393.3,653.3z M414.5,645.8c1.7-2.5,2.5-4.6,2.5-6.4
		s-0.5-2.6-1.5-2.6c-1.5,0-2.8,1.1-4,3.4c-1.2,2.3-1.9,5.5-2.1,9.7C411.1,649.7,412.8,648.3,414.5,645.8z"/>
	<path class="st5" d="M437.8,669.6h-2.2c0-4.1,0.8-9.9,2.4-17.3c1.6-7.4,2.4-11.5,2.4-12.3c0-0.8-0.3-1.7-0.8-2.7
		c-0.5-1-1-1.7-1.6-2.3l-0.8-0.8l0.2-1.3c3.4-1.1,9.3-1.7,17.8-1.7c0.6,1.3,1.1,2.8,1.3,4.3c5-3.3,9.3-5,12.8-5
		c1.9,0,3.4,0.5,4.7,1.5c1.3,1,2.2,2.3,2.7,3.9c4.8-3.6,9.2-5.4,13.2-5.4c2.6,0,4.7,0.8,6.1,2.4c1.5,1.6,2.2,3.5,2.2,5.7
		c0,2.2-0.6,5.8-1.9,10.8c-1.3,5-1.9,8.2-1.9,9.6c0,1.4,0.2,2.1,0.7,2.1l4.5-1.1l1.6,4.3c-1.7,1.4-4.1,2.7-7.2,3.8
		c-3,1.2-5.8,1.7-8.2,1.7c-5,0-7.5-2.5-7.5-7.6c0-2.1,0.6-5.8,1.8-11c1.2-5.2,1.8-8.3,1.8-9.4s-0.4-1.7-1.3-1.7
		c-1.2,0-2.5,0.5-3.9,1.5c-0.2,0.9-0.6,3-1.4,6.3c-1.6,7.4-2.4,14-2.4,19.7c-2.7,1-7.9,1.5-15.6,1.5c-0.2-0.6-0.3-2.1-0.3-4.5
		c0-2.4,0.6-6.6,1.9-12.6c1.3-6,1.9-9.5,1.9-10.4c0-0.9-0.4-1.4-1.2-1.4c-1,0-2.3,0.5-3.8,1.4c-0.2,1-0.7,3.5-1.7,7.6
		c-2,8.5-3,14.7-3,18.6C448.7,669.1,444.1,669.6,437.8,669.6z"/>
	<path class="st5" d="M506.1,653.3c0-7.2,2.2-12.8,6.6-16.8c4.4-4,9.8-6,16.2-6c4.5,0,8,1,10.7,2.9c2.7,1.9,4,4.5,4,7.8
		c0,2.4-0.7,4.5-2.2,6.4c-1.5,1.9-3.2,3.3-5.3,4.3c-4.4,2-8.2,3.2-11.5,3.6l-2.2,0.3c0.6,3.8,2.6,5.7,5.7,5.7c1.4,0,2.9-0.3,4.6-0.9
		c1.7-0.6,3-1.2,4-1.9l1.5-0.9l2.8,3.7l-1,1c-0.3,0.3-1.2,1-2.5,2c-1.3,1-2.7,1.9-4.1,2.7c-1.4,0.8-3.2,1.4-5.4,2
		c-2.2,0.6-4.4,0.9-6.6,0.9c-4.9,0-8.7-1.4-11.4-4.3C507.4,662.9,506.1,658.8,506.1,653.3z M527.2,645.8c1.7-2.5,2.5-4.6,2.5-6.4
		s-0.5-2.6-1.5-2.6c-1.5,0-2.8,1.1-4,3.4c-1.2,2.3-1.9,5.5-2.1,9.7C523.8,649.7,525.5,648.3,527.2,645.8z"/>
	<path class="st5" d="M566.9,688.6c-5,0-9.5-2-13.5-6.1l2.3-3.7c1.9,1.1,3.8,1.7,5.8,1.7c2,0,3.8-1.3,5.2-4s2.9-8.3,4.4-16.8
		c1.5-8.5,2.3-14.8,2.3-18.8c0-0.9-0.3-1.9-0.9-3c-0.6-1.1-1.2-2-1.7-2.7l-0.9-1l0.2-1.4c4.2-1,10.3-1.6,18.3-1.6
		c0.9,1,1.3,2.9,1.3,5.8s-0.5,7.6-1.6,14.3c-1,6.7-2.2,12.5-3.5,17.4C581.2,681.9,575.2,688.6,566.9,688.6z M584.1,624.2
		c-2.6,0-4.7-0.7-6.2-2.1c-1.5-1.4-2.2-3.2-2.2-5.3c0-2.2,0.9-4,2.7-5.5c1.8-1.5,4-2.2,6.7-2.2c2.6,0,4.6,0.6,6.1,1.8
		c1.4,1.2,2.2,2.9,2.2,5.1c0,2.2-0.9,4.1-2.7,5.7C588.9,623.4,586.7,624.2,584.1,624.2z"/>
	<path class="st5" d="M626.7,657.3c0,3.6-1.7,6.6-5,9.1c-3.3,2.5-7.2,3.7-11.7,3.7c-4.5,0-8.1-0.8-11-2.3c-2.9-1.5-4.3-2.9-4.3-4.3
		c0-1.4,0.9-3.1,2.7-5.2c1.8-2.1,3.6-3.3,5.4-3.7c2.7,1.5,5.1,4.7,7.2,9.7c1.7,0,2.5-0.6,2.5-1.7c0-0.8-0.2-1.6-0.7-2.3
		c-0.5-0.7-0.8-1.2-1-1.7c-0.2-0.4-0.6-1-1.2-1.7c-0.6-0.7-1-1.3-1.3-1.6c-1.5-1.7-2.8-3.3-3.9-4.8c-2.8-3.5-4.2-6.5-4.2-9.2
		c0-2.6,0.8-4.8,2.5-6.5c2.9-3,7.2-4.4,12.8-4.4c3.5,0,6.4,0.7,8.4,2c2.1,1.4,3.1,3.4,3.1,6.1c0,2.7-1.6,5.8-4.8,9.3
		C625.2,651.4,626.7,654.5,626.7,657.3z M620.9,641.4c0.7-1.1,1-2,1-2.9s-0.4-1.5-1.1-2c-0.8-0.5-1.7-0.7-2.7-0.7s-1.8,0.2-2.4,0.7
		c-0.6,0.5-0.8,1.1-0.8,2c0,0.8,1.2,2.6,3.7,5.4C619.4,643.3,620.2,642.4,620.9,641.4z"/>
</g>
</svg>
